<?xml version="1.0" encoding="utf-8"?>
<!-- Generator: Adobe Illustrator 16.0.0, SVG Export Plug-In . SVG Version: 6.00 Build 0)  -->
<!DOCTYPE svg PUBLIC "-//W3C//DTD SVG 1.1//EN" "http://www.w3.org/Graphics/SVG/1.1/DTD/svg11.dtd">
<svg version="1.1" id="Layer_1" xmlns="http://www.w3.org/2000/svg" xmlns:xlink="http://www.w3.org/1999/xlink" x="0px" y="0px"
	 width="512px" height="512px" viewBox="0 0 512 512" enable-background="new 0 0 512 512" xml:space="preserve">
<path fill="#FFFFFF" d="M255.999,512c-68.38,0-132.667-26.629-181.019-74.98C26.628,388.667,0,324.38,0,256
	c0-68.379,26.628-132.667,74.98-181.019C123.332,26.629,187.619,0,255.999,0s132.668,26.628,181.02,74.98
	C485.371,123.333,512,187.621,512,256c0,68.38-26.629,132.667-74.981,181.02C388.667,485.371,324.379,512,255.999,512z
	 M255.999,123.815c-72.886,0-132.184,59.298-132.184,132.185c0,72.888,59.298,132.186,132.184,132.186
	c72.888,0,132.187-59.298,132.187-132.186C388.186,183.113,328.887,123.815,255.999,123.815z"/>
</svg>
