<?xml version="1.0" encoding="utf-8"?>
<!-- Generator: Adobe Illustrator 16.0.0, SVG Export Plug-In . SVG Version: 6.00 Build 0)  -->
<!DOCTYPE svg PUBLIC "-//W3C//DTD SVG 1.1//EN" "http://www.w3.org/Graphics/SVG/1.1/DTD/svg11.dtd">
<svg version="1.1" id="Layer_1" xmlns="http://www.w3.org/2000/svg" xmlns:xlink="http://www.w3.org/1999/xlink" x="0px" y="0px"
	 width="100px" height="100px" viewBox="0 0 100 100" enable-background="new 0 0 100 100" xml:space="preserve">
<g>
	<circle fill="#443740" cx="50" cy="49.999" r="50"/>
	<g>
		<path fill="#FEFFEF" d="M91.102,43.967c0.141-0.428,0.141-0.99,0.141-1.561c0.139-4.262-1.42-7.669-3.691-7.81
			c-0.568,0-1.135,0.141-1.563,0.567l0,0c0.57-0.287,0.994-0.712,1.133-1.282c0.713-1.987-1.561-4.68-5.25-6.104
			c-0.285-0.425-0.43-0.705-0.707-0.995c1.842-2.27,2.412-4.54,1.416-5.96c-0.85-1.135-2.84-1.135-4.967-0.425
			c-0.146-3.834-1.707-6.813-3.836-7.103c0-0.567-0.141-1.134-0.57-1.561c-0.141-0.283-0.426-0.424-0.705-0.57
			c-1.283-1.133-4.115-1.133-6.959,0.146c-0.426-0.286-0.852-0.569-1.275-0.851c-3.553-2.274-7.385-2.555-8.666-0.715
			c-0.279,0.427-0.279,0.854-0.279,1.279c-0.145,0-0.289,0-0.426,0c-0.424-2.556-1.564-4.403-3.27-4.541
			c-1.419-0.141-2.837,1.132-3.832,3.262c-2.843-2.554-6.105-3.546-7.667-2.27c-0.43-0.429-0.995-0.709-1.563-0.709
			c-0.285,0-0.57,0-0.853,0.142c-1.705,0-3.692,2.128-4.685,5.113c-0.426,0-0.994,0.14-1.563,0.282
			c-3.69,0.853-6.531,3.123-6.531,5.11c-1.563-1.134-3.125-1.419-4.259-0.71c-1.276,0.854-1.42,2.7-0.853,4.971
			c-3.836-0.285-6.958,0.992-7.384,2.98c-0.568,0-1.134,0-1.563,0.282c-0.28,0.143-0.424,0.43-0.71,0.712
			c-1.276,1.133-1.563,3.976-0.564,6.958c-0.288,0.284-0.712,0.712-0.999,1.135c-2.552,3.265-3.264,7.1-1.556,8.52
			c0.704,0.567,1.843,0.567,2.979,0.285v0.141c-0.285,0-0.712,0.142-0.993,0.425c-1.563,1.135-1.421,4.122,0.141,7.102
			c0,0.139,0,0.283,0,0.283c0,0.714,0,1.417,0,1.987c-2.556,0.853-4.119,2.274-4.119,3.837c0.142,1.418,1.563,2.695,3.834,3.265
			c-2.132,3.12-2.556,6.53-0.994,7.95c-0.284,0.569-0.569,0.995-0.425,1.561c0,0.289,0.141,0.569,0.28,0.85
			c0.289,1.707,2.701,3.27,5.823,3.84c0.146,0.423,0.285,0.992,0.57,1.42c1.561,3.973,4.542,6.39,6.672,5.535
			c0.569-0.281,0.993-0.708,1.28-1.275c0.563,0.567,1.275,1.14,1.845,1.7c0.424,2.419,1.56,4.117,3.123,4.402
			c0,0.567,0.141,1.137,0.426,1.563c0.144,0.284,0.424,0.425,0.709,0.567c1.277,1.279,3.978,1.418,6.956,0.282
			c0.423,0.29,0.712,0.713,1.137,0.997c3.405,2.413,7.242,2.98,8.52,1.133c0,0,0-0.14,0.14-0.14c0.285,0,0.57,0,0.854,0l0,0
			c0.993,1.279,3.405,1.279,6.105,0c1.135-0.141,2.27-0.141,3.41-0.43c0.848,2.276,2.41,3.694,3.971,3.554
			c1.422-0.142,2.555-1.704,3.125-3.979c3.266,1.989,6.674,2.274,7.953,0.714c0.568,0.28,0.996,0.425,1.564,0.425
			c0.281,0,0.566-0.145,0.846-0.284c1.711-0.43,3.125-2.84,3.695-5.963c0.426-0.146,0.99-0.287,1.42-0.569
			c3.834-1.703,6.244-4.827,5.254-6.817c-0.424-0.851-1.279-1.415-2.559-1.561c0-0.14,0.146-0.425,0.146-0.705
			c0.279-0.289,0.426-0.569,0.563-0.854c0.285,0,0.57,0,0.855,0c1.844-0.285,2.84-2.84,2.84-5.965
			c0.426-0.846,0.85-1.705,1.135-2.699c2.553,0.289,4.545-0.426,5.111-1.846s-0.283-3.12-2.131-4.542
			c3.268-1.987,5.115-4.828,4.26-6.673c0.568-0.285,0.855-0.71,1.137-1.279c0.143-0.283,0.143-0.57,0.143-0.993
			C95.076,48.227,93.658,45.812,91.102,43.967z"/>
		<g>
			<g>
				<g>
					<path fill="#F7EEDF" d="M8.181,46.526c0,0.423,0.139,0.99,0.283,1.561c0.139-0.43,0.426-0.853,0.711-1.138
						C8.89,46.662,8.603,46.526,8.181,46.526z"/>
				</g>
				<g>
					<path fill="#F7EEDF" d="M10.167,29.765c-0.283,0.143-0.708,0.143-0.992,0.143c0,0.147,0,0.287,0,0.425c0,0,0,0,0.139-0.138
						c0.288-0.14,0.57-0.287,0.993-0.43C10.167,29.907,10.167,29.765,10.167,29.765z"/>
				</g>
				<g>
					<path fill="#F7EEDF" d="M91.525,44.247c-0.709,0.57-1.42,1.284-2.271,1.707c1.705,1.418,2.701,3.125,2.127,4.543
						c-0.564,1.417-2.551,2.134-5.107,1.847c-0.428,0.853-0.713,1.848-1.141,2.698c0,3.12-0.992,5.68-2.832,5.967
						c-0.289,0-0.57,0-0.859,0c-0.141,0.277-0.424,0.563-0.561,0.85c0,0.283-0.143,0.423-0.143,0.71
						c1.273,0.138,2.125,0.703,2.555,1.561c0.988,1.987-1.422,5.112-5.254,6.817c-0.426,0.284-0.992,0.425-1.422,0.564
						c-0.426,3.125-1.988,5.54-3.691,5.97c-0.283,0.136-0.566,0.28-0.852,0.28c-0.568,0-1.135-0.145-1.563-0.428
						c-1.275,1.563-4.686,1.278-7.947-0.707c-0.428,2.27-1.563,3.834-3.127,3.979c-1.561,0.136-2.98-1.284-3.973-3.555
						c-1.137,0.14-2.273,0.282-3.412,0.43c-2.555,1.271-4.97,1.271-6.105,0l0,0c-0.282,0-0.57,0-0.851,0c0,0,0,0.136-0.145,0.136
						c-1.275,1.85-5.11,1.279-8.52-1.131c-0.425-0.289-0.854-0.569-1.133-0.999c-2.983,1.14-5.68,0.999-6.959-0.28
						c-0.283-0.146-0.565-0.428-0.707-0.57c-0.29-0.427-0.429-0.995-0.429-1.564c-1.421-0.28-2.555-1.987-3.125-4.396
						c-0.709-0.57-1.278-1.14-1.845-1.709c-0.283,0.569-0.709,0.994-1.274,1.279c-2.133,0.851-5.116-1.702-6.678-5.54
						c-0.139-0.425-0.424-0.994-0.563-1.42c-3.125-0.564-5.4-2.13-5.824-3.832c-0.145-0.282-0.284-0.565-0.284-0.853
						c0-0.569,0.139-1.135,0.428-1.56c-0.428-0.283-0.569-0.71-0.712-1.275c-1.276,0.85-2.13,1.84-1.989,2.979
						c0.146,1.416,1.563,2.7,3.836,3.266c-2.127,3.124-2.556,6.532-0.994,7.949c-0.285,0.57-0.569,0.993-0.43,1.563
						c0,0.283,0.145,0.567,0.289,0.853c0.28,1.703,2.695,3.265,5.82,3.833c0.139,0.427,0.285,0.997,0.565,1.417
						c1.562,3.979,4.546,6.395,6.678,5.54c0.561-0.283,0.994-0.706,1.276-1.275c0.569,0.569,1.278,1.138,1.843,1.705
						c0.429,2.412,1.563,4.119,3.123,4.396c0,0.569,0.146,1.14,0.431,1.564c0.139,0.285,0.424,0.425,0.708,0.569
						c1.278,1.275,3.975,1.416,6.957,0.283c0.427,0.285,0.71,0.708,1.133,0.992c3.414,2.417,7.243,2.984,8.524,1.136
						c0,0,0-0.136,0.141-0.136c0.285,0,0.569,0,0.854,0l0,0c0.99,1.272,3.405,1.272,6.105,0c1.135-0.146,2.275-0.146,3.404-0.43
						c0.855,2.27,2.418,3.689,3.98,3.55c1.42-0.141,2.555-1.703,3.121-3.979c3.262,1.994,6.676,2.276,7.949,0.714
						c0.566,0.285,0.994,0.426,1.564,0.426c0.285,0,0.564-0.141,0.85-0.28c1.705-0.43,3.125-2.845,3.693-5.97
						c0.422-0.14,0.996-0.28,1.422-0.569c3.83-1.703,6.244-4.821,5.252-6.811c-0.428-0.854-1.277-1.425-2.553-1.564
						c0-0.141,0.137-0.426,0.137-0.708c0.283-0.285,0.424-0.569,0.568-0.853c0.285,0,0.57,0,0.855,0
						c1.84-0.285,2.838-2.842,2.838-5.965c0.424-0.85,0.852-1.702,1.137-2.695c2.555,0.285,4.543-0.429,5.109-1.847
						c0.57-1.418-0.283-3.123-2.127-4.543c3.266-1.989,5.109-4.829,4.26-6.672c0.568-0.29,0.85-0.713,1.137-1.282
						c0.139-0.28,0.139-0.569,0.139-0.995C95.076,48.367,93.797,46.097,91.525,44.247z"/>
				</g>
				<g>
					<path fill="#F7EEDF" d="M9.458,39.707c0-0.715,0-1.418,0-1.985c0-0.145,0-0.287,0-0.287c-0.568-0.995-0.855-1.99-1.138-2.982
						c-1.843,2.555-2.555,5.399-1.843,7.1C7.184,40.702,8.32,40.132,9.458,39.707z"/>
				</g>
			</g>
		</g>
	</g>
	<g>
		<g>
			<path fill="#F37F46" d="M66.4,65.064c-0.693,0.531-1.471,0.973-2.246,1.377c-8.42,4.38-30.665,2.761-32.333-2.9
				c-1.018-3.45-1.262-7.063-0.838-10.639c0.426-3.57,1.138-7.145,0.884-10.729c-0.157-2.29-0.688-4.726,0.347-6.776
				c1.377-2.718,4.846-3.5,7.875-3.826c7.925-0.846,15.952-0.651,23.821,0.584c1.174,0.183,2.432,0.436,3.211,1.329
				c0.75,0.868,0.85,2.103,0.912,3.252c0.369,6.62,0.74,13.249,1.113,19.87c0.127,2.238,0.213,4.626-0.949,6.541
				C67.73,63.905,67.107,64.529,66.4,65.064z"/>
		</g>
		<g>
			<g>
				<path fill="#FAC9B1" d="M42.809,40.01c3.491-2.95,7.428-5.725,10.835-8.832c-0.932-0.04-1.859-0.076-2.791-0.086
					c-3.464,3.13-7.095,6.11-10.595,9.188c-3.084,2.72-6.091,5.628-8.772,8.771c-0.167,1.289-0.349,2.57-0.504,3.853
					c-0.016,0.143-0.016,0.29-0.031,0.432C34.258,48.367,38.251,43.863,42.809,40.01z"/>
			</g>
			<g>
				<path fill="#FAC9B1" d="M31.821,63.541c0.074,0.269,0.246,0.531,0.418,0.782c11.19-10.596,24.494-19.275,35.236-30.077
					c-0.115-0.26-0.166-0.542-0.354-0.762c-0.594-0.676-1.475-0.949-2.371-1.14c-11.096,9.895-22.194,19.789-33.289,29.684
					C31.572,62.535,31.671,63.041,31.821,63.541z"/>
			</g>
			<g>
				<path fill="#FAC9B1" d="M68.645,47.611c-0.043-0.734-0.082-1.477-0.123-2.211c-7.643,8.312-16.031,15.968-24.755,23.171
					c1.521,0.179,3.1,0.294,4.691,0.344C55.748,62.367,62.504,55.24,68.645,47.611z"/>
			</g>
		</g>
	</g>
</g>
</svg>
