<?xml version="1.0" encoding="utf-8"?>
<!-- Generator: Adobe Illustrator 16.0.0, SVG Export Plug-In . SVG Version: 6.00 Build 0)  -->
<!DOCTYPE svg PUBLIC "-//W3C//DTD SVG 1.1//EN" "http://www.w3.org/Graphics/SVG/1.1/DTD/svg11.dtd">
<svg version="1.1" id="Layer_1" xmlns="http://www.w3.org/2000/svg" xmlns:xlink="http://www.w3.org/1999/xlink" x="0px" y="0px"
	 width="100px" height="100px" viewBox="0 0 100 100" enable-background="new 0 0 100 100" xml:space="preserve">
<g>
	<circle fill="#F37F46" cx="50" cy="50" r="50"/>
	<g>
		<path fill="#FEFFEF" d="M91.1,43.967c0.142-0.428,0.142-0.993,0.142-1.562c0.144-4.261-1.417-7.668-3.688-7.809
			c-0.571,0-1.135,0.141-1.563,0.568l0,0c0.572-0.286,0.992-0.712,1.134-1.281c0.714-1.989-1.563-4.683-5.25-6.105
			c-0.287-0.425-0.431-0.708-0.707-0.995c1.841-2.269,2.409-4.541,1.415-5.96c-0.85-1.135-2.839-1.135-4.967-0.427
			c-0.146-3.833-1.705-6.812-3.836-7.101c0-0.567-0.142-1.134-0.57-1.561c-0.139-0.283-0.424-0.424-0.703-0.57
			c-1.284-1.133-4.118-1.133-6.962,0.146c-0.427-0.286-0.853-0.568-1.276-0.85c-3.55-2.274-7.385-2.555-8.663-0.714
			c-0.282,0.426-0.282,0.853-0.282,1.278c-0.144,0-0.285,0-0.424,0c-0.426-2.555-1.565-4.404-3.269-4.541
			c-1.421-0.141-2.835,1.132-3.833,3.262c-2.84-2.554-6.105-3.546-7.666-2.271c-0.429-0.428-0.995-0.709-1.564-0.709
			c-0.284,0-0.569,0-0.852,0.142c-1.704,0-3.692,2.128-4.687,5.113c-0.424,0-0.992,0.14-1.562,0.283
			c-3.69,0.852-6.53,3.122-6.53,5.11c-1.562-1.134-3.126-1.419-4.26-0.71c-1.276,0.854-1.418,2.701-0.852,4.971
			c-3.835-0.285-6.959,0.993-7.383,2.98c-0.568,0-1.136,0-1.563,0.283c-0.28,0.143-0.425,0.429-0.711,0.712
			c-1.277,1.133-1.563,3.975-0.563,6.958c-0.29,0.283-0.713,0.711-0.999,1.135c-2.552,3.264-3.264,7.1-1.557,8.519
			c0.705,0.567,1.843,0.567,2.982,0.286v0.137c-0.288,0-0.716,0.144-0.994,0.426c-1.562,1.137-1.423,4.122,0.139,7.104
			c0,0.137,0,0.281,0,0.281c0,0.715,0,1.419,0,1.988c-2.555,0.854-4.117,2.274-4.117,3.838c0.14,1.417,1.563,2.692,3.833,3.265
			c-2.131,3.119-2.555,6.531-0.993,7.949c-0.285,0.57-0.569,0.995-0.424,1.562c0,0.286,0.139,0.569,0.278,0.85
			c0.289,1.706,2.701,3.269,5.824,3.839c0.145,0.422,0.285,0.992,0.568,1.42c1.562,3.972,4.542,6.388,6.673,5.535
			c0.569-0.28,0.992-0.708,1.28-1.276c0.563,0.568,1.276,1.141,1.845,1.701c0.423,2.417,1.561,4.116,3.124,4.401
			c0,0.568,0.14,1.139,0.425,1.563c0.145,0.285,0.423,0.422,0.708,0.566c1.278,1.28,3.979,1.42,6.957,0.283
			c0.424,0.289,0.713,0.712,1.138,0.997c3.407,2.413,7.242,2.981,8.518,1.133c0,0,0-0.143,0.144-0.143c0.284,0,0.568,0,0.851,0l0,0
			c0.994,1.281,3.409,1.281,6.105,0c1.137-0.138,2.27-0.138,3.409-0.428c0.851,2.277,2.411,3.695,3.972,3.554
			c1.424-0.141,2.555-1.703,3.126-3.977c3.268,1.988,6.671,2.273,7.951,0.713c0.57,0.28,0.996,0.426,1.566,0.426
			c0.278,0,0.568-0.146,0.848-0.288c1.706-0.428,3.125-2.837,3.692-5.96c0.427-0.146,0.992-0.287,1.42-0.57
			c3.835-1.702,6.246-4.826,5.255-6.816c-0.425-0.849-1.278-1.415-2.558-1.559c0-0.141,0.146-0.428,0.146-0.71
			c0.278-0.288,0.427-0.566,0.565-0.851c0.281,0,0.568,0,0.852,0c1.843-0.286,2.843-2.841,2.843-5.966
			c0.424-0.846,0.849-1.705,1.132-2.701c2.553,0.292,4.545-0.424,5.11-1.842c0.569-1.42-0.282-3.123-2.129-4.545
			c3.268-1.986,5.113-4.828,4.26-6.671c0.568-0.287,0.854-0.708,1.136-1.281c0.146-0.281,0.146-0.568,0.146-0.991
			C95.079,48.226,93.659,45.81,91.1,43.967z"/>
		<g>
			<g>
				<g>
					<path fill="#F7EEDF" d="M8.183,46.525c0,0.424,0.141,0.991,0.284,1.561c0.139-0.429,0.424-0.853,0.709-1.137
						C8.891,46.663,8.605,46.525,8.183,46.525z"/>
				</g>
				<g>
					<path fill="#F7EEDF" d="M10.167,29.765c-0.283,0.144-0.708,0.144-0.992,0.144c0,0.146,0,0.286,0,0.423c0,0,0,0,0.139-0.137
						c0.29-0.14,0.57-0.286,0.994-0.429C10.167,29.908,10.167,29.765,10.167,29.765z"/>
				</g>
				<g>
					<path fill="#F7EEDF" d="M91.528,44.247c-0.713,0.57-1.423,1.282-2.274,1.707c1.705,1.418,2.699,3.125,2.131,4.542
						c-0.569,1.419-2.556,2.136-5.11,1.848c-0.427,0.854-0.714,1.85-1.139,2.697c0,3.12-0.993,5.679-2.833,5.968
						c-0.293,0-0.571,0-0.86,0c-0.138,0.277-0.425,0.564-0.562,0.85c0,0.281-0.142,0.425-0.142,0.71
						c1.271,0.138,2.125,0.704,2.556,1.562c0.991,1.988-1.422,5.111-5.255,6.818c-0.426,0.28-0.993,0.423-1.422,0.563
						c-0.424,3.124-1.988,5.539-3.688,5.967c-0.285,0.14-0.57,0.283-0.856,0.283c-0.565,0-1.133-0.144-1.561-0.428
						c-1.277,1.563-4.685,1.278-7.947-0.708c-0.43,2.271-1.563,3.836-3.125,3.98c-1.563,0.136-2.981-1.286-3.976-3.556
						c-1.137,0.142-2.274,0.283-3.413,0.428c-2.554,1.273-4.966,1.273-6.103,0l0,0c-0.28,0-0.57,0-0.849,0c0,0,0,0.14-0.144,0.14
						c-1.278,1.848-5.112,1.279-8.519-1.134c-0.426-0.287-0.857-0.565-1.135-0.996c-2.983,1.138-5.679,0.996-6.96-0.281
						c-0.28-0.144-0.565-0.428-0.705-0.571c-0.291-0.427-0.43-0.991-0.43-1.563c-1.421-0.279-2.556-1.988-3.126-4.396
						c-0.707-0.57-1.277-1.141-1.844-1.709c-0.283,0.568-0.708,0.993-1.273,1.278c-2.135,0.852-5.113-1.701-6.678-5.54
						c-0.141-0.423-0.425-0.993-0.564-1.42c-3.123-0.566-5.398-2.13-5.824-3.831c-0.146-0.285-0.285-0.566-0.285-0.852
						c0-0.57,0.14-1.136,0.429-1.563c-0.429-0.282-0.567-0.711-0.713-1.275c-1.275,0.852-2.131,1.844-1.987,2.979
						c0.145,1.416,1.563,2.702,3.834,3.266c-2.127,3.124-2.555,6.534-0.993,7.95c-0.285,0.57-0.57,0.993-0.43,1.563
						c0,0.283,0.146,0.569,0.289,0.854c0.282,1.701,2.694,3.267,5.82,3.831c0.14,0.427,0.284,0.998,0.565,1.421
						c1.563,3.976,4.546,6.393,6.678,5.537c0.563-0.283,0.993-0.705,1.275-1.276c0.569,0.571,1.277,1.139,1.842,1.704
						c0.428,2.414,1.563,4.121,3.124,4.398c0,0.569,0.146,1.139,0.43,1.561c0.139,0.288,0.424,0.428,0.711,0.571
						c1.275,1.278,3.973,1.416,6.956,0.283c0.427,0.285,0.709,0.71,1.133,0.995c3.413,2.415,7.242,2.982,8.524,1.133
						c0,0,0-0.136,0.141-0.136c0.284,0,0.566,0,0.852,0l0,0c0.994,1.274,3.406,1.274,6.107,0c1.133-0.144,2.272-0.144,3.404-0.432
						c0.855,2.273,2.417,3.692,3.98,3.553c1.418-0.142,2.552-1.703,3.12-3.98c3.262,1.994,6.675,2.277,7.95,0.716
						c0.566,0.285,0.993,0.422,1.561,0.422c0.29,0,0.569-0.137,0.854-0.278c1.704-0.432,3.125-2.847,3.69-5.967
						c0.425-0.142,0.996-0.283,1.425-0.57c3.825-1.703,6.243-4.82,5.252-6.813c-0.43-0.854-1.28-1.421-2.556-1.563
						c0-0.14,0.137-0.425,0.137-0.709c0.287-0.284,0.425-0.57,0.568-0.854c0.287,0,0.57,0,0.854,0
						c1.847-0.281,2.84-2.841,2.84-5.964c0.425-0.851,0.852-1.701,1.139-2.696c2.555,0.287,4.541-0.43,5.11-1.845
						c0.568-1.418-0.287-3.123-2.129-4.543c3.266-1.99,5.108-4.83,4.26-6.673c0.566-0.289,0.849-0.714,1.137-1.282
						c0.14-0.282,0.14-0.57,0.14-0.995C95.079,48.366,93.799,46.095,91.528,44.247z"/>
				</g>
				<g>
					<path fill="#F7EEDF" d="M9.46,39.706c0-0.713,0-1.417,0-1.986c0-0.144,0-0.286,0-0.286c-0.569-0.995-0.855-1.99-1.136-2.982
						c-1.844,2.555-2.558,5.399-1.844,7.1C7.187,40.701,8.324,40.133,9.46,39.706z"/>
				</g>
			</g>
		</g>
	</g>
	<g>
		<g>
			<path fill="#93CA86" d="M44.041,57.201c-0.087-0.028-0.167-0.051-0.254-0.071c-1.198-0.275-2.85-0.465-4.094-0.541
				c-1.056-0.062-2.102,0.188-3.16,0.216c-1.059,0.027-2.24-0.249-2.771-1.054c-0.554-0.834-0.225-1.973-0.832-2.787
				c-0.915-1.221-3.313-0.92-4.244-2.135c-0.98-1.283,0.475-2.937,0.481-4.481c0.004-1.181-0.856-2.217-1.224-3.353
				c-0.553-1.728,0.064-3.563,0.675-5.277c1.121-3.125,2.434-6.487,5.517-8.327c1.362-0.813,2.963-1.25,4.558-1.605
				c6.193-1.375,12.633-1.607,19.017-1.83c1.798-0.063,3.675-0.115,5.317,0.54c2.372,0.946,3.576,3.079,4.188,5.197
				c0.559,1.931,1.779,4.074,1.33,6.067c-0.304,1.364-0.906,2.74-0.604,4.104c0.306,1.376,1.515,2.668,1.109,4.022
				c-0.299,0.99-1.395,1.657-1.783,2.621c-0.531,1.324,0.181,2.763-0.289,4.12c-0.293,0.856-0.984,2.166-1.536,2.909
				c-0.574,0.771-1.625,1.348-2.653,1.156c-0.972-0.183-1.823-1.002-2.785-0.784c-1.024,0.234-1.298,1.438-2.185,1.94
				c-2.313,1.314-4.001-0.949-6.213-0.81c-1.343,0.084-2.314,1.27-3.647,1.441C46.444,58.67,45.366,57.605,44.041,57.201z"/>
		</g>
		<g opacity="0.3">
			<path fill="#FFF9B1" d="M65.047,34.639c0.201,0.839,0.398,1.678,0.599,2.516c0.088,0.374,0.622,1.63,1.291,1.393
				c0.705-0.26,0.184-2.173,0.157-2.604c-0.055-0.842-0.107-1.681-0.164-2.522c-0.088-1.328-0.237-2.783-1.31-3.724
				c-0.959-0.84-2.41-1.043-3.756-1.203c-4.597-0.546-9.31-1.088-13.844-0.203c-3.01,0.587-5.916,1.8-9.008,1.759
				c-1.1-0.014-2.21-0.188-3.291-0.002c-2.337,0.402-3.899,2.372-4.693,4.334c-2.063,5.092-0.632,10.703,0.815,15.955
				c0.198,0.723,2.498,5.103,2.498,5.103c0.981,0.229,0.732-2.287,0.811-2.985c0.145-1.238-1.091-3.29-1.505-4.484l-1.581-4.533
				c-0.49-1.416-0.989-2.872-0.88-4.353c0.103-1.362,0.715-2.649,1.318-3.906c0.493-1.021,1.028-2.095,2.058-2.742
				c0.858-0.545,1.95-0.714,2.999-0.855c6.704-0.916,13.48-1.414,20.263-1.492c2.1-0.021,4.474,0.099,5.852,1.487
				C64.507,32.414,64.792,33.554,65.047,34.639z"/>
		</g>
	</g>
	<path fill="#FEC367" d="M35.08,63.773c0,0-5.834-6.766-2.042-10.154c3.792-3.383,10.042-9.443,10.042-9.443
		s11.98-5.125,14.583-3.046c2.604,2.074,3.125,14.733,3.125,14.733l-6.253,13.904c0,0-7.55,0.26-10.154-1.039
		C41.779,67.424,35.08,63.773,35.08,63.773z"/>
</g>
</svg>
