<?xml version="1.0" encoding="utf-8"?>
<!-- Generator: Adobe Illustrator 16.0.0, SVG Export Plug-In . SVG Version: 6.00 Build 0)  -->
<!DOCTYPE svg PUBLIC "-//W3C//DTD SVG 1.1//EN" "http://www.w3.org/Graphics/SVG/1.1/DTD/svg11.dtd">
<svg version="1.1" id="Layer_1" xmlns="http://www.w3.org/2000/svg" xmlns:xlink="http://www.w3.org/1999/xlink" x="0px" y="0px"
	 width="100px" height="100px" viewBox="0 0 100 100" enable-background="new 0 0 100 100" xml:space="preserve">
<g>
	<path fill="#443740" d="M54,97.227c0-2.538-0.76-96.191-0.76-96.191s-0.077-0.758-0.506-0.975v-0.06
		c-0.046,0-0.087,0.005-0.127,0.014c-0.039-0.009-0.081-0.014-0.126-0.014v0.06c-0.428,0.217-0.507,0.975-0.507,0.975
		s-0.759,93.653-0.759,96.191c0,1.881,0.834,2.497,1.266,2.69v0.084c0,0,0.048-0.008,0.126-0.034
		c0.077,0.026,0.127,0.034,0.127,0.034v-0.084C53.166,99.724,54,99.107,54,97.227z"/>
	<path fill="#D6685C" d="M51.402,72.329h2.41c-0.006-0.736-0.012-1.481-0.018-2.235h-2.374
		C51.414,70.848,51.408,71.593,51.402,72.329z"/>
	<path fill="#F7EEDF" d="M51.262,90.526h2.691c-0.03-4.094-0.075-9.785-0.126-16.334h-2.438
		C51.337,80.741,51.292,86.433,51.262,90.526z"/>
	<path fill="#443740" d="M48.784,97.227c0-2.538-0.759-96.191-0.759-96.191s-0.079-0.758-0.507-0.975v-0.06
		c-0.045,0-0.087,0.005-0.126,0.014c-0.04-0.009-0.082-0.014-0.127-0.014v0.06c-0.428,0.217-0.506,0.975-0.506,0.975
		S46,94.688,46,97.227c0,1.881,0.834,2.497,1.266,2.69v0.084c0,0,0.05-0.008,0.127-0.034c0.078,0.026,0.126,0.034,0.126,0.034
		v-0.084C47.95,99.724,48.784,99.107,48.784,97.227z"/>
	<path fill="#D6685C" d="M46.188,72.329h2.41c-0.006-0.736-0.012-1.481-0.019-2.235h-2.374
		C46.199,70.848,46.193,71.593,46.188,72.329z"/>
	<path fill="#F7EEDF" d="M46.046,90.526h2.692c-0.03-4.094-0.075-9.785-0.127-16.334h-2.438
		C46.121,80.741,46.077,86.433,46.046,90.526z"/>
</g>
</svg>
