<?xml version="1.0" encoding="utf-8"?>
<!-- Generator: Adobe Illustrator 16.0.0, SVG Export Plug-In . SVG Version: 6.00 Build 0)  -->
<!DOCTYPE svg PUBLIC "-//W3C//DTD SVG 1.1//EN" "http://www.w3.org/Graphics/SVG/1.1/DTD/svg11.dtd">
<svg version="1.1" id="Layer_1" xmlns="http://www.w3.org/2000/svg" xmlns:xlink="http://www.w3.org/1999/xlink" x="0px" y="0px"
	 width="512px" height="512px" viewBox="0 0 512 512" enable-background="new 0 0 512 512" xml:space="preserve">
<path fill="#FFFFFF" d="M491.104,390.205L356.898,256L490.4,122.497c27.861-27.862,27.861-73.036,0-100.897
	c-27.862-27.863-73.036-27.863-100.898,0L255.999,155.102L121.796,20.897c-27.863-27.863-73.037-27.863-100.899,0
	c-27.862,27.862-27.862,73.036,0,100.898L155.1,256L21.598,389.502c-27.862,27.862-27.862,73.037,0,100.899
	c13.93,13.932,32.189,20.896,50.448,20.896c18.26,0,36.519-6.965,50.451-20.896l133.502-133.503l134.205,134.205
	C404.138,505.036,422.393,512,440.654,512c18.256,0,36.52-6.967,50.449-20.896C518.965,463.241,518.966,418.067,491.104,390.205z"/>
</svg>
